  0
SECTION
  2
HEADER
  9
$ACADVER
  1
AC1015
  9
$ACADMAINTVER
 70
     6
  9
$DWGCODEPAGE
  3
ANSI_1252
  9
$INSBASE
 10
0.0
 20
0.0
 30
0.0
  9
$EXTMIN
 10
-2.229096880872343
 20
-1.767766952966369
 30
0.0
  9
$EXTMAX
 10
5.313091660587587
 20
8.561919927744947
 30
0.0
  9
$LIMMIN
 10
0.0
 20
0.0
  9
$LIMMAX
 10
12.0
 20
9.0
  9
$ORTHOMODE
 70
     0
  9
$REGENMODE
 70
     1
  9
$FILLMODE
 70
     1
  9
$QTEXTMODE
 70
     0
  9
$MIRRTEXT
 70
     0
  9
$LTSCALE
 40
1.0
  9
$ATTMODE
 70
     1
  9
$TEXTSIZE
 40
0.2
  9
$TRACEWID
 40
0.05
  9
$TEXTSTYLE
  7
Standard
  9
$CLAYER
  8
0
  9
$CELTYPE
  6
ByLayer
  9
$CECOLOR
 62
   256
  9
$CELTSCALE
 40
1.0
  9
$DISPSILH
 70
     0
  9
$DIMSCALE
 40
1.0
  9
$DIMASZ
 40
0.18
  9
$DIMEXO
 40
0.0625
  9
$DIMDLI
 40
0.38
  9
$DIMRND
 40
0.0
  9
$DIMDLE
 40
0.0
  9
$DIMEXE
 40
0.18
  9
$DIMTP
 40
0.0
  9
$DIMTM
 40
0.0
  9
$DIMTXT
 40
0.18
  9
$DIMCEN
 40
0.09
  9
$DIMTSZ
 40
0.0
  9
$DIMTOL
 70
     0
  9
$DIMLIM
 70
     0
  9
$DIMTIH
 70
     1
  9
$DIMTOH
 70
     1
  9
$DIMSE1
 70
     0
  9
$DIMSE2
 70
     0
  9
$DIMTAD
 70
     0
  9
$DIMZIN
 70
     0
  9
$DIMBLK
  1

  9
$DIMASO
 70
     1
  9
$DIMSHO
 70
     1
  9
$DIMPOST
  1

  9
$DIMAPOST
  1

  9
$DIMALT
 70
     0
  9
$DIMALTD
 70
     2
  9
$DIMALTF
 40
25.4
  9
$DIMLFAC
 40
1.0
  9
$DIMTOFL
 70
     0
  9
$DIMTVP
 40
0.0
  9
$DIMTIX
 70
     0
  9
$DIMSOXD
 70
     0
  9
$DIMSAH
 70
     0
  9
$DIMBLK1
  1

  9
$DIMBLK2
  1

  9
$DIMSTYLE
  2
Standard
  9
$DIMCLRD
 70
     0
  9
$DIMCLRE
 70
     0
  9
$DIMCLRT
 70
     0
  9
$DIMTFAC
 40
1.0
  9
$DIMGAP
 40
0.09
  9
$DIMJUST
 70
     0
  9
$DIMSD1
 70
     0
  9
$DIMSD2
 70
     0
  9
$DIMTOLJ
 70
     1
  9
$DIMTZIN
 70
     0
  9
$DIMALTZ
 70
     0
  9
$DIMALTTZ
 70
     0
  9
$DIMUPT
 70
     0
  9
$DIMDEC
 70
     4
  9
$DIMTDEC
 70
     4
  9
$DIMALTU
 70
     2
  9
$DIMALTTD
 70
     2
  9
$DIMTXSTY
  7
Standard
  9
$DIMAUNIT
 70
     0
  9
$DIMADEC
 70
     0
  9
$DIMALTRND
 40
0.0
  9
$DIMAZIN
 70
     0
  9
$DIMDSEP
 70
    46
  9
$DIMATFIT
 70
     3
  9
$DIMFRAC
 70
     0
  9
$DIMLDRBLK
  1

  9
$DIMLUNIT
 70
     2
  9
$DIMLWD
 70
    -2
  9
$DIMLWE
 70
    -2
  9
$DIMTMOVE
 70
     0
  9
$LUNITS
 70
     2
  9
$LUPREC
 70
     4
  9
$SKETCHINC
 40
0.1
  9
$FILLETRAD
 40
0.0
  9
$AUNITS
 70
     0
  9
$AUPREC
 70
     0
  9
$MENU
  1
.
  9
$ELEVATION
 40
0.0
  9
$PELEVATION
 40
0.0
  9
$THICKNESS
 40
0.0
  9
$LIMCHECK
 70
     0
  9
$CHAMFERA
 40
0.0
  9
$CHAMFERB
 40
0.0
  9
$CHAMFERC
 40
0.0
  9
$CHAMFERD
 40
0.0
  9
$SKPOLY
 70
     0
  9
$TDCREATE
 40
2452642.855050926
  9
$TDUCREATE
 40
2452643.063384271
  9
$TDUPDATE
 40
2456335.712604155
  9
$TDUUPDATE
 40
2456335.9209375
  9
$TDINDWG
 40
0.0042459954
  9
$TDUSRTIMER
 40
2456335.884664352
  9
$USRTIMER
 70
     1
  9
$ANGBASE
 50
0.0
  9
$ANGDIR
 70
     0
  9
$PDMODE
 70
     0
  9
$PDSIZE
 40
0.0
  9
$PLINEWID
 40
0.0
  9
$SPLFRAME
 70
     0
  9
$SPLINETYPE
 70
     6
  9
$SPLINESEGS
 70
     8
  9
$HANDSEED
  5
366
  9
$SURFTAB1
 70
     6
  9
$SURFTAB2
 70
     6
  9
$SURFTYPE
 70
     6
  9
$SURFU
 70
     6
  9
$SURFV
 70
     6
  9
$UCSBASE
  2

  9
$UCSNAME
  2

  9
$UCSORG
 10
0.0
 20
0.0
 30
0.0
  9
$UCSXDIR
 10
1.0
 20
0.0
 30
0.0
  9
$UCSYDIR
 10
0.0
 20
1.0
 30
0.0
  9
$UCSORTHOREF
  2

  9
$UCSORTHOVIEW
 70
     0
  9
$UCSORGTOP
 10
0.0
 20
0.0
 30
0.0
  9
$UCSORGBOTTOM
 10
0.0
 20
0.0
 30
0.0
  9
$UCSORGLEFT
 10
0.0
 20
0.0
 30
0.0
  9
$UCSORGRIGHT
 10
0.0
 20
0.0
 30
0.0
  9
$UCSORGFRONT
 10
0.0
 20
0.0
 30
0.0
  9
$UCSORGBACK
 10
0.0
 20
0.0
 30
0.0
  9
$PUCSBASE
  2

  9
$PUCSNAME
  2

  9
$PUCSORG
 10
0.0
 20
0.0
 30
0.0
  9
$PUCSXDIR
 10
1.0
 20
0.0
 30
0.0
  9
$PUCSYDIR
 10
0.0
 20
1.0
 30
0.0
  9
$PUCSORTHOREF
  2

  9
$PUCSORTHOVIEW
 70
     0
  9
$PUCSORGTOP
 10
0.0
 20
0.0
 30
0.0
  9
$PUCSORGBOTTOM
 10
0.0
 20
0.0
 30
0.0
  9
$PUCSORGLEFT
 10
0.0
 20
0.0
 30
0.0
  9
$PUCSORGRIGHT
 10
0.0
 20
0.0
 30
0.0
  9
$PUCSORGFRONT
 10
0.0
 20
0.0
 30
0.0
  9
$PUCSORGBACK
 10
0.0
 20
0.0
 30
0.0
  9
$USERI1
 70
     0
  9
$USERI2
 70
     0
  9
$USERI3
 70
     0
  9
$USERI4
 70
     0
  9
$USERI5
 70
     0
  9
$USERR1
 40
0.0
  9
$USERR2
 40
0.0
  9
$USERR3
 40
0.0
  9
$USERR4
 40
0.0
  9
$USERR5
 40
0.0
  9
$WORLDVIEW
 70
     1
  9
$SHADEDGE
 70
     3
  9
$SHADEDIF
 70
    70
  9
$TILEMODE
 70
     1
  9
$MAXACTVP
 70
    64
  9
$PINSBASE
 10
0.0
 20
0.0
 30
0.0
  9
$PLIMCHECK
 70
     0
  9
$PEXTMIN
 10
0.0
 20
0.0
 30
0.0
  9
$PEXTMAX
 10
0.0
 20
0.0
 30
0.0
  9
$PLIMMIN
 10
0.0
 20
0.0
  9
$PLIMMAX
 10
0.0
 20
0.0
  9
$UNITMODE
 70
     0
  9
$VISRETAIN
 70
     1
  9
$PLINEGEN
 70
     0
  9
$PSLTSCALE
 70
     1
  9
$TREEDEPTH
 70
  3020
  9
$CMLSTYLE
  2
Standard
  9
$CMLJUST
 70
     0
  9
$CMLSCALE
 40
1.0
  9
$PROXYGRAPHICS
 70
     1
  9
$MEASUREMENT
 70
     0
  9
$CELWEIGHT
370
    -1
  9
$ENDCAPS
280
     0
  9
$JOINSTYLE
280
     0
  9
$LWDISPLAY
290
     0
  9
$INSUNITS
 70
     1
  9
$HYPERLINKBASE
  1

  9
$STYLESHEET
  1

  9
$XEDIT
290
     1
  9
$CEPSNTYPE
380
     0
  9
$PSTYLEMODE
290
     1
  9
$FINGERPRINTGUID
  2
{FDEAD576-A652-11D2-9A35-0060089B3A3F}
  9
$VERSIONGUID
  2
{FBC2AE19-5C5C-49EC-81BC-71B1A3362A02}
  9
$EXTNAMES
290
     1
  9
$PSVPSCALE
 40
0.0
  9
$OLESTARTUP
290
     0
  0
ENDSEC
  0
SECTION
  2
CLASSES
  0
CLASS
  1
ACDBDICTIONARYWDFLT
  2
AcDbDictionaryWithDefault
  3
ObjectDBX Classes
 90
        0
280
     0
281
     0
  0
CLASS
  1
ACDBPLACEHOLDER
  2
AcDbPlaceHolder
  3
ObjectDBX Classes
 90
        0
280
     0
281
     0
  0
CLASS
  1
LAYOUT
  2
AcDbLayout
  3
ObjectDBX Classes
 90
        0
280
     0
281
     0
  0
CLASS
  1
DICTIONARYVAR
  2
AcDbDictionaryVar
  3
ObjectDBX Classes
 90
        0
280
     0
281
     0
  0
CLASS
  1
TABLESTYLE
  2
AcDbTableStyle
  3
ObjectDBX Classes
 90
     4095
280
     0
281
     0
  0
CLASS
  1
MATERIAL
  2
AcDbMaterial
  3
ObjectDBX Classes
 90
     1153
280
     0
281
     0
  0
CLASS
  1
VISUALSTYLE
  2
AcDbVisualStyle
  3
ObjectDBX Classes
 90
     4095
280
     0
281
     0
  0
CLASS
  1
SCALE
  2
AcDbScale
  3
ObjectDBX Classes
 90
     1153
280
     0
281
     0
  0
CLASS
  1
CELLSTYLEMAP
  2
AcDbCellStyleMap
  3
ObjectDBX Classes
 90
     1152
280
     0
281
     0
  0
CLASS
  1
RASTERVARIABLES
  2
AcDbRasterVariables
  3
ISM
 90
        0
280
     0
281
     0
  0
CLASS
  1
DIMASSOC
  2
AcDbDimAssoc
  3
"AcDbDimAssoc|Product Desc:     AcDim ARX App For Dimension|Company:          Autodesk, Inc.|WEB Address:      www.autodesk.com"
 90
        0
280
     0
281
     0
  0
CLASS
  1
ARC_DIMENSION
  2
AcDbArcDimension
  3
ObjectDBX Classes
 90
     1025
280
     0
281
     1
  0
ENDSEC
  0
SECTION
  2
TABLES
  0
TABLE
  2
VPORT
  5
8
330
0
100
AcDbSymbolTable
 70
     1
  0
VPORT
  5
94
330
8
100
AcDbSymbolTableRecord
100
AcDbViewportTableRecord
  2
*Active
 70
     0
 10
0.0
 20
0.0
 11
1.0
 21
1.0
 12
36.50368587405107
 22
21.75598581717881
 13
0.0
 23
0.0
 14
0.5
 24
0.5
 15
0.5
 25
0.5
 16
0.0
 26
0.0
 36
1.0
 17
-27.66959356597976
 27
-19.53870295786204
 37
0.0
 40
11.00571428571429
 41
3.587743732590529
 42
50.0
 43
0.0
 44
0.0
 50
0.0
 51
0.0
 71
    16
 72
  1000
 73
     1
 74
     3
 75
     0
 76
     0
 77
     0
 78
     0
281
     0
 65
     1
110
0.0
120
0.0
130
0.0
111
1.0
121
0.0
131
0.0
112
0.0
122
1.0
132
0.0
 79
     0
146
0.0
  0
ENDTAB
  0
TABLE
  2
LTYPE
  5
5
330
0
100
AcDbSymbolTable
 70
     1
  0
LTYPE
  5
14
330
5
100
AcDbSymbolTableRecord
100
AcDbLinetypeTableRecord
  2
ByBlock
 70
     0
  3

 72
    65
 73
     0
 40
0.0
  0
LTYPE
  5
15
330
5
100
AcDbSymbolTableRecord
100
AcDbLinetypeTableRecord
  2
ByLayer
 70
     0
  3

 72
    65
 73
     0
 40
0.0
  0
LTYPE
  5
16
330
5
100
AcDbSymbolTableRecord
100
AcDbLinetypeTableRecord
  2
Continuous
 70
     0
  3
Solid line
 72
    65
 73
     0
 40
0.0
  0
ENDTAB
  0
TABLE
  2
LAYER
  5
2
102
{ACAD_XDICTIONARY
360
E9
102
}
330
0
100
AcDbSymbolTable
 70
     5
  0
LAYER
  5
10
330
2
100
AcDbSymbolTableRecord
100
AcDbLayerTableRecord
  2
0
 70
     0
 62
     7
  6
Continuous
370
    -3
390
F
  0
LAYER
  5
EC
330
2
100
AcDbSymbolTableRecord
100
AcDbLayerTableRecord
  2
0.0625
 70
     0
 62
     7
  6
Continuous
370
    -3
390
F
1001
AcAecLayerStandard
1000

1000

  0
LAYER
  5
EE
330
2
100
AcDbSymbolTableRecord
100
AcDbLayerTableRecord
  2
0.000
 70
     0
 62
     7
  6
Continuous
370
    -3
390
F
1001
AcAecLayerStandard
1000

1000

  0
LAYER
  5
EF
330
2
100
AcDbSymbolTableRecord
100
AcDbLayerTableRecord
  2
0.125
 70
     0
 62
     7
  6
Continuous
370
    -3
390
F
1001
AcAecLayerStandard
1000

1000

  0
LAYER
  5
21B
330
2
100
AcDbSymbolTableRecord
100
AcDbLayerTableRecord
  2
Defpoints
 70
     0
 62
     7
  6
Continuous
290
     0
370
    -3
390
F
  0
ENDTAB
  0
TABLE
  2
STYLE
  5
3
330
0
100
AcDbSymbolTable
 70
     1
  0
STYLE
  5
11
330
3
100
AcDbSymbolTableRecord
100
AcDbTextStyleTableRecord
  2
Standard
 70
     0
 40
0.0
 41
1.0
 50
0.0
 71
     0
 42
0.2
  3
txt
  4

  0
ENDTAB
  0
TABLE
  2
VIEW
  5
6
330
0
100
AcDbSymbolTable
 70
     0
  0
ENDTAB
  0
TABLE
  2
UCS
  5
7
330
0
100
AcDbSymbolTable
 70
     0
  0
ENDTAB
  0
TABLE
  2
APPID
  5
9
330
0
100
AcDbSymbolTable
 70
     2
  0
APPID
  5
12
330
9
100
AcDbSymbolTableRecord
100
AcDbRegAppTableRecord
  2
ACAD
 70
     0
  0
APPID
  5
ED
330
9
100
AcDbSymbolTableRecord
100
AcDbRegAppTableRecord
  2
AcAecLayerStandard
 70
     0
  0
ENDTAB
  0
TABLE
  2
DIMSTYLE
  5
A
330
0
100
AcDbSymbolTable
 70
     1
100
AcDbDimStyleTable
  0
DIMSTYLE
105
27
330
A
100
AcDbSymbolTableRecord
100
AcDbDimStyleTableRecord
  2
Standard
 70
     0
178
     0
340
11
  0
ENDTAB
  0
TABLE
  2
BLOCK_RECORD
  5
1
330
0
100
AcDbSymbolTable
 70
    13
  0
BLOCK_RECORD
  5
1F
330
1
100
AcDbSymbolTableRecord
100
AcDbBlockTableRecord
  2
*Model_Space
340
22
  0
BLOCK_RECORD
  5
58
330
1
100
AcDbSymbolTableRecord
100
AcDbBlockTableRecord
  2
*Paper_Space
340
59
  0
BLOCK_RECORD
  5
5D
330
1
100
AcDbSymbolTableRecord
100
AcDbBlockTableRecord
  2
*Paper_Space0
340
5E
  0
BLOCK_RECORD
  5
21F
330
1
100
AcDbSymbolTableRecord
100
AcDbBlockTableRecord
  2
*D1
340
0
  0
BLOCK_RECORD
  5
22F
330
1
100
AcDbSymbolTableRecord
100
AcDbBlockTableRecord
  2
*D2
340
0
  0
BLOCK_RECORD
  5
247
330
1
100
AcDbSymbolTableRecord
100
AcDbBlockTableRecord
  2
*D3
340
0
  0
BLOCK_RECORD
  5
257
330
1
100
AcDbSymbolTableRecord
100
AcDbBlockTableRecord
  2
*D4
340
0
  0
BLOCK_RECORD
  5
267
330
1
100
AcDbSymbolTableRecord
100
AcDbBlockTableRecord
  2
*D5
340
0
  0
BLOCK_RECORD
  5
278
330
1
100
AcDbSymbolTableRecord
100
AcDbBlockTableRecord
  2
*D6
340
0
  0
BLOCK_RECORD
  5
288
330
1
100
AcDbSymbolTableRecord
100
AcDbBlockTableRecord
  2
*D7
340
0
  0
BLOCK_RECORD
  5
299
330
1
100
AcDbSymbolTableRecord
100
AcDbBlockTableRecord
  2
*D8
340
0
  0
BLOCK_RECORD
  5
2AA
330
1
100
AcDbSymbolTableRecord
100
AcDbBlockTableRecord
  2
*D9
340
0
  0
BLOCK_RECORD
  5
2BA
330
1
100
AcDbSymbolTableRecord
100
AcDbBlockTableRecord
  2
*D10
340
0
  0
BLOCK_RECORD
  5
2CA
330
1
100
AcDbSymbolTableRecord
100
AcDbBlockTableRecord
  2
*D11
340
0
  0
BLOCK_RECORD
  5
312
330
1
100
AcDbSymbolTableRecord
100
AcDbBlockTableRecord
  2
*D12
340
0
  0
ENDTAB
  0
ENDSEC
  0
SECTION
  2
BLOCKS
  0
BLOCK
  5
20
330
1F
100
AcDbEntity
  8
0
100
AcDbBlockBegin
  2
*Model_Space
 70
     0
 10
0.0
 20
0.0
 30
0.0
  3
*Model_Space
  1

  0
ENDBLK
  5
21
330
1F
100
AcDbEntity
  8
0
100
AcDbBlockEnd
  0
BLOCK
  5
5A
330
58
100
AcDbEntity
 67
     1
  8
0
100
AcDbBlockBegin
  2
*Paper_Space
 70
     0
 10
0.0
 20
0.0
 30
0.0
  3
*Paper_Space
  1

  0
ENDBLK
  5
5B
330
58
100
AcDbEntity
 67
     1
  8
0
100
AcDbBlockEnd
  0
BLOCK
  5
5F
330
5D
100
AcDbEntity
  8
0
100
AcDbBlockBegin
  2
*Paper_Space0
 70
     0
 10
0.0
 20
0.0
 30
0.0
  3
*Paper_Space0
  1

  0
ENDBLK
  5
60
330
5D
100
AcDbEntity
  8
0
100
AcDbBlockEnd
  0
BLOCK
  5
22A
330
21F
100
AcDbEntity
  8
0
100
AcDbBlockBegin
  2
*D1
 70
     1
 10
0.0
 20
0.0
 30
0.0
  3
*D1
  1

  0
ARC
  5
220
330
21F
100
AcDbEntity
  8
0
 62
     0
370
    -2
100
AcDbCircle
 10
5.229192673724297
 20
1.229192673724296
 30
0.0
 40
0.787207923478089
100
AcDbArc
 50
340.3399105671057
 51
353.4696574177167
  0
ARC
  5
221
330
21F
100
AcDbEntity
  8
0
 62
     0
370
    -2
100
AcDbCircle
 10
5.229192673724297
 20
1.229192673724296
 30
0.0
 40
0.787207923478089
100
AcDbArc
 50
96.53034258228321
 51
109.6600894328943
  0
SOLID
  5
222
330
21F
100
AcDbEntity
  8
0
 62
     0
100
AcDbTrace
 10
6.041293002875949
 20
1.139682091550972
 30
0.0
 11
5.981293013772532
 21
1.139645930938907
 31
0.0
 12
6.011184526488046
 22
1.31966397855519
 32
0.0
 13
6.011184526488046
 23
1.31966397855519
 33
0.0
  0
SOLID
  5
223
330
21F
100
AcDbEntity
  8
0
 62
     0
100
AcDbTrace
 10
5.139645930938908
 20
1.98129301377253
 30
0.0
 11
5.139682091550974
 21
2.041293002875947
 31
0.0
 12
5.319663978555191
 22
2.011184526488044
 32
0.0
 13
5.319663978555191
 23
2.011184526488044
 33
0.0
  0
MTEXT
  5
224
330
21F
100
AcDbEntity
  8
0
 62
     0
100
AcDbMText
 10
5.785832734619435
 20
1.785832734619433
 30
0.0
 40
0.18
 41
0.0
 71
     5
 72
     1
  1
\A1;77%%d
 73
     1
 44
1.0
  0
POINT
  5
225
330
21F
100
AcDbEntity
  8
Defpoints
 62
     0
100
AcDbPoint
 10
5.895324092749118
 20
1.648674791787347
 30
0.0
  0
POINT
  5
226
330
21F
100
AcDbEntity
  8
Defpoints
 62
     0
100
AcDbPoint
 10
5.414213562373096
 20
2.82842712474619
 30
0.0
  0
POINT
  5
227
330
21F
100
AcDbEntity
  8
Defpoints
 62
     0
100
AcDbPoint
 10
5.229192673724297
 20
1.229192673724296
 30
0.0
  0
POINT
  5
228
330
21F
100
AcDbEntity
  8
Defpoints
 62
     0
100
AcDbPoint
 10
6.82842712474619
 20
1.414213562373094
 30
0.0
  0
POINT
  5
229
330
21F
100
AcDbEntity
  8
Defpoints
 62
     0
100
AcDbPoint
 10
5.229192673724297
 20
1.229192673724296
 30
0.0
  0
ENDBLK
  5
22B
330
21F
100
AcDbEntity
  8
0
100
AcDbBlockEnd
  0
BLOCK
  5
23C
330
22F
100
AcDbEntity
  8
0
100
AcDbBlockBegin
  2
*D2
 70
     1
 10
0.0
 20
0.0
 30
0.0
  3
*D2
  1

  0
LINE
  5
230
330
22F
100
AcDbEntity
  8
0
 62
     0
370
    -2
100
AcDbLine
 10
5.0
 20
3.0625
 30
0.0
 11
5.0
 21
3.541932807204399
 31
0.0
  0
LINE
  5
231
330
22F
100
AcDbEntity
  8
0
 62
     0
370
    -2
100
AcDbLine
 10
3.0
 20
3.0625
 30
0.0
 11
3.0
 21
3.541932807204399
 31
0.0
  0
ARC
  5
232
330
22F
100
AcDbEntity
  8
0
 62
     0
370
    -2
100
AcDbCircle
 10
4.0
 20
1.738340949950547
 30
0.0
 40
1.906843076642914
100
AcDbArc
 50
63.78087443098826
 51
74.9541833314338
  0
ARC
  5
233
330
22F
100
AcDbEntity
  8
0
 62
     0
370
    -2
100
AcDbCircle
 10
4.0
 20
1.738340949950547
 30
0.0
 40
1.906843076642914
100
AcDbArc
 50
115.0953613040203
 51
116.2191255690118
  0
SOLID
  5
234
330
22F
100
AcDbEntity
  8
0
 62
     0
100
AcDbTrace
 10
4.827943791989683
 20
3.422732982246173
 30
0.0
 11
4.856963103247032
 21
3.475248499706721
 31
0.0
 12
5.0
 22
3.361932807204399
 32
0.0
 13
5.0
 23
3.361932807204399
 33
0.0
  0
SOLID
  5
235
330
22F
100
AcDbEntity
  8
0
 62
     0
100
AcDbTrace
 10
3.143036896752968
 20
3.475248499706721
 30
0.0
 11
3.172056208010317
 21
3.422732982246173
 31
0.0
 12
3.0
 22
3.361932807204399
 32
0.0
 13
3.0
 23
3.361932807204399
 33
0.0
  0
MTEXT
  5
236
330
22F
100
AcDbEntity
  8
0
 62
     0
100
AcDbMText
 10
4.0
 20
3.64518402659346
 30
0.0
 40
0.18
 41
0.0
 71
     5
 72
     1
  1
\A1;2.1580
 73
     1
 44
1.0
  0
ARC
  5
237
330
22F
100
AcDbEntity
  8
0
 62
     0
370
    -2
100
AcDbCircle
 10
3.415
 20
3.57318402659346
 30
0.0
 40
0.1439999999999998
100
AcDbArc
 50
0.0
 51
180.0
  0
POINT
  5
238
330
22F
100
AcDbEntity
  8
Defpoints
 62
     0
100
AcDbPoint
 10
4.0
 20
1.738340949950547
 30
0.0
  0
POINT
  5
239
330
22F
100
AcDbEntity
  8
Defpoints
 62
     0
100
AcDbPoint
 10
5.0
 20
3.0
 30
0.0
  0
POINT
  5
23A
330
22F
100
AcDbEntity
  8
Defpoints
 62
     0
100
AcDbPoint
 10
3.0
 20
3.0
 30
0.0
  0
POINT
  5
23B
330
22F
100
AcDbEntity
  8
Defpoints
 62
     0
100
AcDbPoint
 10
4.348908946163174
 20
3.612991068300186
 30
0.0
  0
ENDBLK
  5
23D
330
22F
100
AcDbEntity
  8
0
100
AcDbBlockEnd
  0
BLOCK
  5
252
330
247
100
AcDbEntity
  8
0
100
AcDbBlockBegin
  2
*D3
 70
     1
 10
0.0
 20
0.0
 30
0.0
  3
*D3
  1

  0
LINE
  5
248
330
247
100
AcDbEntity
  8
0
 62
     0
370
    -2
100
AcDbLine
 10
5.414213562373096
 20
2.89092712474619
 30
0.0
 11
5.414213562373096
 21
3.459127078596857
 31
0.0
  0
LINE
  5
249
330
247
100
AcDbEntity
  8
0
 62
     0
370
    -2
100
AcDbLine
 10
6.121320343559641
 20
2.183820343559641
 30
0.0
 11
6.121320343559641
 21
3.459127078596857
 31
0.0
  0
LINE
  5
24A
330
247
100
AcDbEntity
  8
0
 62
     0
370
    -2
100
AcDbLine
 10
6.121320343559641
 20
3.279127078596856
 30
0.0
 11
6.301320343559641
 21
3.279127078596856
 31
0.0
  0
LINE
  5
24B
330
247
100
AcDbEntity
  8
0
 62
     0
370
    -2
100
AcDbLine
 10
5.594213562373096
 20
3.279127078596856
 30
0.0
 11
5.941320343559641
 21
3.279127078596856
 31
0.0
  0
SOLID
  5
24C
330
247
100
AcDbEntity
  8
0
 62
     0
100
AcDbTrace
 10
5.594213562373096
 20
3.309127078596856
 30
0.0
 11
5.594213562373096
 21
3.249127078596857
 31
0.0
 12
5.414213562373096
 22
3.279127078596856
 32
0.0
 13
5.414213562373096
 23
3.279127078596856
 33
0.0
  0
SOLID
  5
24D
330
247
100
AcDbEntity
  8
0
 62
     0
100
AcDbTrace
 10
5.941320343559641
 20
3.249127078596857
 30
0.0
 11
5.941320343559641
 21
3.309127078596856
 31
0.0
 12
6.121320343559641
 22
3.279127078596856
 32
0.0
 13
6.121320343559641
 23
3.279127078596856
 33
0.0
  0
MTEXT
  5
24E
330
247
100
AcDbEntity
  8
0
 62
     0
100
AcDbMText
 10
6.78132034355964
 20
3.279127078596856
 30
0.0
 40
0.18
 41
0.0
 71
     5
 72
     1
  1
\A1;0.7071
 73
     1
 44
1.0
  0
POINT
  5
24F
330
247
100
AcDbEntity
  8
Defpoints
 62
     0
100
AcDbPoint
 10
5.414213562373096
 20
2.82842712474619
 30
0.0
  0
POINT
  5
250
330
247
100
AcDbEntity
  8
Defpoints
 62
     0
100
AcDbPoint
 10
6.121320343559641
 20
2.121320343559641
 30
0.0
  0
POINT
  5
251
330
247
100
AcDbEntity
  8
Defpoints
 62
     0
100
AcDbPoint
 10
6.121320343559641
 20
3.279127078596856
 30
0.0
  0
ENDBLK
  5
253
330
247
100
AcDbEntity
  8
0
100
AcDbBlockEnd
  0
BLOCK
  5
262
330
257
100
AcDbEntity
  8
0
100
AcDbBlockBegin
  2
*D4
 70
     1
 10
0.0
 20
0.0
 30
0.0
  3
*D4
  1

  0
LINE
  5
258
330
257
100
AcDbEntity
  8
0
 62
     0
370
    -2
100
AcDbLine
 10
5.414213562373097
 20
2.89092712474619
 30
0.0
 11
5.414213562373097
 21
3.408899328497374
 31
0.0
  0
LINE
  5
259
330
257
100
AcDbEntity
  8
0
 62
     0
370
    -2
100
AcDbLine
 10
5.853437131717735
 20
2.451703555401552
 30
0.0
 11
5.853437131717735
 21
3.408899328497374
 31
0.0
  0
LINE
  5
25A
330
257
100
AcDbEntity
  8
0
 62
     0
370
    -2
100
AcDbLine
 10
6.033437131717735
 20
3.228899328497373
 30
0.0
 11
6.213437131717734
 21
3.228899328497373
 31
0.0
  0
LINE
  5
25B
330
257
100
AcDbEntity
  8
0
 62
     0
370
    -2
100
AcDbLine
 10
5.414213562373097
 20
3.228899328497373
 30
0.0
 11
5.054213562373096
 21
3.228899328497373
 31
0.0
  0
SOLID
  5
25C
330
257
100
AcDbEntity
  8
0
 62
     0
100
AcDbTrace
 10
5.234213562373097
 20
3.198899328497374
 30
0.0
 11
5.234213562373097
 21
3.258899328497373
 31
0.0
 12
5.414213562373097
 22
3.228899328497373
 32
0.0
 13
5.414213562373097
 23
3.228899328497373
 33
0.0
  0
SOLID
  5
25D
330
257
100
AcDbEntity
  8
0
 62
     0
100
AcDbTrace
 10
6.033437131717735
 20
3.258899328497373
 30
0.0
 11
6.033437131717735
 21
3.198899328497374
 31
0.0
 12
5.853437131717735
 22
3.228899328497373
 32
0.0
 13
5.853437131717735
 23
3.228899328497373
 33
0.0
  0
MTEXT
  5
25E
330
257
100
AcDbEntity
  8
0
 62
     0
100
AcDbMText
 10
6.738437131717735
 20
3.228899328497373
 30
0.0
 40
0.18
 41
0.0
 71
     5
 72
     1
  1
\A1;0.4392
 73
     1
 44
1.0
  0
POINT
  5
25F
330
257
100
AcDbEntity
  8
Defpoints
 62
     0
100
AcDbPoint
 10
5.414213562373097
 20
2.82842712474619
 30
0.0
  0
POINT
  5
260
330
257
100
AcDbEntity
  8
Defpoints
 62
     0
100
AcDbPoint
 10
5.853437131717735
 20
2.389203555401552
 30
0.0
  0
POINT
  5
261
330
257
100
AcDbEntity
  8
Defpoints
 62
     0
100
AcDbPoint
 10
5.853437131717735
 20
3.228899328497373
 30
0.0
  0
ENDBLK
  5
263
330
257
100
AcDbEntity
  8
0
100
AcDbBlockEnd
  0
BLOCK
  5
273
330
267
100
AcDbEntity
  8
0
100
AcDbBlockBegin
  2
*D5
 70
     1
 10
0.0
 20
0.0
 30
0.0
  3
*D5
  1

  0
LINE
  5
268
330
267
100
AcDbEntity
  8
0
 62
     0
370
    -2
100
AcDbLine
 10
5.915937131717735
 20
2.389203555401552
 30
0.0
 11
8.660960898281608
 21
2.389203555401552
 31
0.0
  0
LINE
  5
269
330
267
100
AcDbEntity
  8
0
 62
     0
370
    -2
100
AcDbLine
 10
5.361786740459047
 20
1.835053164142865
 30
0.0
 11
8.660960898281608
 21
1.835053164142865
 31
0.0
  0
LINE
  5
26A
330
267
100
AcDbEntity
  8
0
 62
     0
370
    -2
100
AcDbLine
 10
8.480960898281609
 20
1.655053164142865
 30
0.0
 11
8.300960898281609
 21
1.655053164142865
 31
0.0
  0
LINE
  5
26B
330
267
100
AcDbEntity
  8
0
 62
     0
370
    -2
100
AcDbLine
 10
8.480960898281609
 20
2.209203555401551
 30
0.0
 11
8.480960898281609
 21
2.015053164142865
 31
0.0
  0
LINE
  5
26C
330
267
100
AcDbEntity
  8
0
 62
     0
370
    -2
100
AcDbLine
 10
8.480960898281609
 20
1.835053164142865
 30
0.0
 11
8.480960898281609
 21
1.655053164142865
 31
0.0
  0
SOLID
  5
26D
330
267
100
AcDbEntity
  8
0
 62
     0
100
AcDbTrace
 10
8.510960898281608
 20
2.209203555401551
 30
0.0
 11
8.45096089828161
 21
2.209203555401551
 31
0.0
 12
8.480960898281609
 22
2.389203555401552
 32
0.0
 13
8.480960898281609
 23
2.389203555401552
 33
0.0
  0
SOLID
  5
26E
330
267
100
AcDbEntity
  8
0
 62
     0
100
AcDbTrace
 10
8.45096089828161
 20
2.015053164142865
 30
0.0
 11
8.510960898281608
 21
2.015053164142865
 31
0.0
 12
8.480960898281609
 22
1.835053164142865
 32
0.0
 13
8.480960898281609
 23
1.835053164142865
 33
0.0
  0
MTEXT
  5
26F
330
267
100
AcDbEntity
  8
0
 62
     0
100
AcDbMText
 10
7.775960898281609
 20
1.655053164142865
 30
0.0
 40
0.18
 41
0.0
 71
     5
 72
     1
  1
\A1;0.5542
 73
     1
 44
1.0
  0
POINT
  5
270
330
267
100
AcDbEntity
  8
Defpoints
 62
     0
100
AcDbPoint
 10
5.853437131717735
 20
2.389203555401552
 30
0.0
  0
POINT
  5
271
330
267
100
AcDbEntity
  8
Defpoints
 62
     0
100
AcDbPoint
 10
5.299286740459047
 20
1.835053164142865
 30
0.0
  0
POINT
  5
272
330
267
100
AcDbEntity
  8
Defpoints
 62
     0
100
AcDbPoint
 10
8.480960898281609
 20
1.835053164142865
 30
0.0
  0
ENDBLK
  5
274
330
267
100
AcDbEntity
  8
0
100
AcDbBlockEnd
  0
BLOCK
  5
283
330
278
100
AcDbEntity
  8
0
100
AcDbBlockBegin
  2
*D6
 70
     1
 10
0.0
 20
0.0
 30
0.0
  3
*D6
  1

  0
LINE
  5
279
330
278
100
AcDbEntity
  8
0
 62
     0
370
    -2
100
AcDbLine
 10
5.458407736197256
 20
2.872621298570349
 30
0.0
 11
6.345889175976092
 21
3.760102738349186
 31
0.0
  0
LINE
  5
27A
330
278
100
AcDbEntity
  8
0
 62
     0
370
    -2
100
AcDbLine
 10
6.165514517383804
 20
2.165514517383802
 30
0.0
 11
7.05299595716264
 21
3.052995957162639
 31
0.0
  0
LINE
  5
27B
330
278
100
AcDbEntity
  8
0
 62
     0
370
    -2
100
AcDbLine
 10
6.218609955362513
 20
3.632823517735607
 30
0.0
 11
5.964051514135356
 21
3.887381958962764
 31
0.0
  0
LINE
  5
27C
330
278
100
AcDbEntity
  8
0
 62
     0
370
    -2
100
AcDbLine
 10
6.925716736549061
 20
2.92571673654906
 30
0.0
 11
7.180275177776219
 21
2.671158295321904
 31
0.0
  0
SOLID
  5
27D
330
278
100
AcDbEntity
  8
0
 62
     0
100
AcDbTrace
 10
6.070117531313338
 20
3.73888953491359
 30
0.0
 11
6.112543938184531
 21
3.781315941784782
 31
0.0
 12
6.218609955362513
 22
3.632823517735607
 32
0.0
 13
6.218609955362513
 23
3.632823517735607
 33
0.0
  0
SOLID
  5
27E
330
278
100
AcDbEntity
  8
0
 62
     0
100
AcDbTrace
 10
7.074209160598237
 20
2.819650719371078
 30
0.0
 11
7.031782753727043
 21
2.777224312499885
 31
0.0
 12
6.925716736549061
 22
2.92571673654906
 32
0.0
 13
6.925716736549061
 23
2.92571673654906
 33
0.0
  0
MTEXT
  5
27F
330
278
100
AcDbEntity
  8
0
 62
     0
100
AcDbMText
 10
6.572163345955787
 20
3.279270127142334
 30
0.0
 40
0.18
 41
0.0
 71
     5
 72
     1
  1
\A1;1.0000
 73
     1
 44
1.0
  0
POINT
  5
280
330
278
100
AcDbEntity
  8
Defpoints
 62
     0
100
AcDbPoint
 10
5.414213562373097
 20
2.82842712474619
 30
0.0
  0
POINT
  5
281
330
278
100
AcDbEntity
  8
Defpoints
 62
     0
100
AcDbPoint
 10
6.121320343559645
 20
2.121320343559643
 30
0.0
  0
POINT
  5
282
330
278
100
AcDbEntity
  8
Defpoints
 62
     0
100
AcDbPoint
 10
6.925716736549061
 20
2.92571673654906
 30
0.0
  0
ENDBLK
  5
284
330
278
100
AcDbEntity
  8
0
100
AcDbBlockEnd
  0
BLOCK
  5
294
330
288
100
AcDbEntity
  8
0
100
AcDbBlockBegin
  2
*D7
 70
     1
 10
0.0
 20
0.0
 30
0.0
  3
*D7
  1

  0
LINE
  5
289
330
288
100
AcDbEntity
  8
0
 62
     0
370
    -2
100
AcDbLine
 10
5.458407736197255
 20
2.872621298570349
 30
0.0
 11
6.138699706815726
 21
3.55291326918882
 31
0.0
  0
LINE
  5
28A
330
288
100
AcDbEntity
  8
0
 62
     0
370
    -2
100
AcDbLine
 10
5.897631305541895
 20
2.43339772922571
 30
0.0
 11
6.577923276160365
 21
3.113689699844182
 31
0.0
  0
LINE
  5
28B
330
288
100
AcDbEntity
  8
0
 62
     0
370
    -2
100
AcDbLine
 10
6.577923276160365
 20
2.859131258617024
 30
0.0
 11
6.757923276160365
 21
2.859131258617024
 31
0.0
  0
LINE
  5
28C
330
288
100
AcDbEntity
  8
0
 62
     0
370
    -2
100
AcDbLine
 10
6.138699706815726
 20
3.298354827961663
 30
0.0
 11
6.323364834933208
 21
3.113689699844182
 31
0.0
  0
LINE
  5
28D
330
288
100
AcDbEntity
  8
0
 62
     0
370
    -2
100
AcDbLine
 10
6.450644055546786
 20
2.986410479230603
 30
0.0
 11
6.577923276160365
 21
2.859131258617024
 31
0.0
  0
SOLID
  5
28E
330
288
100
AcDbEntity
  8
0
 62
     0
100
AcDbTrace
 10
6.159912910251323
 20
3.319568031397259
 30
0.0
 11
6.117486503380129
 21
3.277141624526067
 31
0.0
 12
6.011420486202147
 22
3.425634048575242
 32
0.0
 13
6.011420486202147
 23
3.425634048575242
 33
0.0
  0
SOLID
  5
28F
330
288
100
AcDbEntity
  8
0
 62
     0
100
AcDbTrace
 10
6.302151631497611
 20
3.092476496408585
 30
0.0
 11
6.344578038368804
 21
3.134902903279778
 31
0.0
 12
6.450644055546786
 22
2.986410479230603
 32
0.0
 13
6.450644055546786
 23
2.986410479230603
 33
0.0
  0
MTEXT
  5
290
330
288
100
AcDbEntity
  8
0
 62
     0
100
AcDbMText
 10
7.252923276160365
 20
2.859131258617024
 30
0.0
 40
0.18
 41
0.0
 71
     5
 72
     1
  1
\A1;0.6212
 73
     1
 44
1.0
  0
POINT
  5
291
330
288
100
AcDbEntity
  8
Defpoints
 62
     0
100
AcDbPoint
 10
5.414213562373096
 20
2.82842712474619
 30
0.0
  0
POINT
  5
292
330
288
100
AcDbEntity
  8
Defpoints
 62
     0
100
AcDbPoint
 10
5.853437131717735
 20
2.389203555401551
 30
0.0
  0
POINT
  5
293
330
288
100
AcDbEntity
  8
Defpoints
 62
     0
100
AcDbPoint
 10
6.450644055546786
 20
2.986410479230603
 30
0.0
  0
ENDBLK
  5
295
330
288
100
AcDbEntity
  8
0
100
AcDbBlockEnd
  0
BLOCK
  5
2A5
330
299
100
AcDbEntity
  8
0
100
AcDbBlockBegin
  2
*D8
 70
     1
 10
0.0
 20
0.0
 30
0.0
  3
*D8
  1

  0
LINE
  5
29A
330
299
100
AcDbEntity
  8
0
 62
     0
370
    -2
100
AcDbLine
 10
5.897631305541895
 20
2.345009381577392
 30
0.0
 11
6.921291928907761
 21
1.321348758211525
 31
0.0
  0
LINE
  5
29B
330
299
100
AcDbEntity
  8
0
 62
     0
370
    -2
100
AcDbLine
 10
5.343480914283208
 20
1.790858990318706
 30
0.0
 11
6.367141537649074
 21
0.7671983669528388
 31
0.0
  0
LINE
  5
29C
330
299
100
AcDbEntity
  8
0
 62
     0
370
    -2
100
AcDbLine
 10
6.112583096421917
 20
0.7671983669528388
 30
0.0
 11
5.932583096421917
 21
0.7671983669528388
 31
0.0
  0
LINE
  5
29D
330
299
100
AcDbEntity
  8
0
 62
     0
370
    -2
100
AcDbLine
 10
6.666733487680603
 20
1.321348758211525
 30
0.0
 11
6.367141537649074
 21
1.021756808179996
 31
0.0
  0
LINE
  5
29E
330
299
100
AcDbEntity
  8
0
 62
     0
370
    -2
100
AcDbLine
 10
6.239862317035495
 20
0.8944775875664174
 30
0.0
 11
6.112583096421917
 21
0.7671983669528388
 31
0.0
  0
SOLID
  5
29F
330
299
100
AcDbEntity
  8
0
 62
     0
100
AcDbTrace
 10
6.6879466911162
 20
1.300135554775929
 30
0.0
 11
6.645520284245007
 21
1.342561961647122
 31
0.0
 12
6.794012708294182
 22
1.448627978825104
 32
0.0
 13
6.794012708294182
 23
1.448627978825104
 33
0.0
  0
SOLID
  5
2A0
330
299
100
AcDbEntity
  8
0
 62
     0
100
AcDbTrace
 10
6.345928334213477
 20
1.042970011615592
 30
0.0
 11
6.388354741084671
 21
1.000543604744399
 31
0.0
 12
6.239862317035495
 22
0.8944775875664174
 32
0.0
 13
6.239862317035495
 23
0.8944775875664174
 33
0.0
  0
MTEXT
  5
2A1
330
299
100
AcDbEntity
  8
0
 62
     0
100
AcDbMText
 10
5.407583096421917
 20
0.7671983669528388
 30
0.0
 40
0.18
 41
0.0
 71
     5
 72
     1
  1
\A1;0.7837
 73
     1
 44
1.0
  0
POINT
  5
2A2
330
299
100
AcDbEntity
  8
Defpoints
 62
     0
100
AcDbPoint
 10
5.853437131717735
 20
2.389203555401551
 30
0.0
  0
POINT
  5
2A3
330
299
100
AcDbEntity
  8
Defpoints
 62
     0
100
AcDbPoint
 10
5.299286740459048
 20
1.835053164142865
 30
0.0
  0
POINT
  5
2A4
330
299
100
AcDbEntity
  8
Defpoints
 62
     0
100
AcDbPoint
 10
6.239862317035495
 20
0.8944775875664174
 30
0.0
  0
ENDBLK
  5
2A6
330
299
100
AcDbEntity
  8
0
100
AcDbBlockEnd
  0
BLOCK
  5
2B5
330
2AA
100
AcDbEntity
  8
0
100
AcDbBlockBegin
  2
*D9
 70
     1
 10
0.0
 20
0.0
 30
0.0
  3
*D9
  1

  0
LINE
  5
2AB
330
2AA
100
AcDbEntity
  8
0
 62
     0
370
    -2
100
AcDbLine
 10
5.352127689835388
 20
2.835610051115818
 30
0.0
 11
3.981715037634744
 21
2.994157765344774
 31
0.0
  0
LINE
  5
2AC
330
2AA
100
AcDbEntity
  8
0
 62
     0
370
    -2
100
AcDbLine
 10
5.23720086792134
 20
1.842236090512493
 30
0.0
 11
3.866788215720695
 21
2.000783804741449
 31
0.0
  0
LINE
  5
2AD
330
2AA
100
AcDbEntity
  8
0
 62
     0
370
    -2
100
AcDbLine
 10
4.139835522598814
 20
2.794663624491647
 30
0.0
 11
4.123883753568722
 21
2.656783957098583
 31
0.0
  0
LINE
  5
2AE
330
2AA
100
AcDbEntity
  8
0
 62
     0
370
    -2
100
AcDbLine
 10
4.066282356573822
 20
2.158904289705519
 30
0.0
 11
4.082234125603914
 21
2.296783957098583
 31
0.0
  0
SOLID
  5
2AF
330
2AA
100
AcDbEntity
  8
0
 62
     0
100
AcDbTrace
 10
4.169636741416913
 20
2.791215819834225
 30
0.0
 11
4.110034303780714
 21
2.798111429149068
 31
0.0
 12
4.160522350543342
 22
2.973470937400245
 32
0.0
 13
4.160522350543342
 23
2.973470937400245
 33
0.0
  0
SOLID
  5
2B0
330
2AA
100
AcDbEntity
  8
0
 62
     0
100
AcDbTrace
 10
4.036481137755723
 20
2.16235209436294
 30
0.0
 11
4.096083575391922
 21
2.155456485048097
 31
0.0
 12
4.045595528629294
 22
1.98009697679692
 32
0.0
 13
4.045595528629294
 23
1.98009697679692
 33
0.0
  0
MTEXT
  5
2B1
330
2AA
100
AcDbEntity
  8
0
 62
     0
100
AcDbMText
 10
4.103058939586318
 20
2.476783957098583
 30
0.0
 40
0.18
 41
0.0
 71
     5
 72
     1
  1
\A1;1.0000
 73
     1
 44
1.0
  0
POINT
  5
2B2
330
2AA
100
AcDbEntity
  8
Defpoints
 62
     0
100
AcDbPoint
 10
5.414213562373096
 20
2.82842712474619
 30
0.0
  0
POINT
  5
2B3
330
2AA
100
AcDbEntity
  8
Defpoints
 62
     0
100
AcDbPoint
 10
5.299286740459047
 20
1.835053164142865
 30
0.0
  0
POINT
  5
2B4
330
2AA
100
AcDbEntity
  8
Defpoints
 62
     0
100
AcDbPoint
 10
4.045595528629294
 20
1.98009697679692
 30
0.0
  0
ENDBLK
  5
2B6
330
2AA
100
AcDbEntity
  8
0
100
AcDbBlockEnd
  0
BLOCK
  5
2C5
330
2BA
100
AcDbEntity
  8
0
100
AcDbBlockBegin
  2
*D10
 70
     1
 10
0.0
 20
0.0
 30
0.0
  3
*D10
  1

  0
LINE
  5
2BB
330
2BA
100
AcDbEntity
  8
0
 62
     0
370
    -2
100
AcDbLine
 10
5.352127689835389
 20
2.835610051115818
 30
0.0
 11
3.176171137776123
 21
3.087353886840422
 31
0.0
  0
LINE
  5
2BC
330
2BA
100
AcDbEntity
  8
0
 62
     0
370
    -2
100
AcDbLine
 10
5.167106801186589
 20
1.236375600093924
 30
0.0
 11
2.991150249127323
 21
1.488119435818528
 31
0.0
  0
LINE
  5
2BD
330
2BA
100
AcDbEntity
  8
0
 62
     0
370
    -2
100
AcDbLine
 10
3.334291622740193
 20
2.887859745987295
 30
0.0
 11
3.283292820342727
 21
2.447049833384946
 31
0.0
  0
LINE
  5
2BE
330
2BA
100
AcDbEntity
  8
0
 62
     0
370
    -2
100
AcDbLine
 10
3.190644389980451
 20
1.646239920782598
 30
0.0
 11
3.241643192377917
 21
2.087049833384947
 31
0.0
  0
SOLID
  5
2BF
330
2BA
100
AcDbEntity
  8
0
 62
     0
100
AcDbTrace
 10
3.364092841558292
 20
2.884411941329873
 30
0.0
 11
3.304490403922093
 21
2.891307550644716
 31
0.0
 12
3.354978450684722
 22
3.066667058895893
 32
0.0
 13
3.354978450684722
 23
3.066667058895893
 33
0.0
  0
SOLID
  5
2C0
330
2BA
100
AcDbEntity
  8
0
 62
     0
100
AcDbTrace
 10
3.160843171162351
 20
1.64968772544002
 30
0.0
 11
3.22044560879855
 21
1.642792116125177
 31
0.0
 12
3.169957562035922
 22
1.467432607874
 32
0.0
 13
3.169957562035922
 23
1.467432607874
 33
0.0
  0
MTEXT
  5
2C1
330
2BA
100
AcDbEntity
  8
0
 62
     0
100
AcDbMText
 10
3.262468006360322
 20
2.267049833384946
 30
0.0
 40
0.18
 41
0.0
 71
     5
 72
     1
  1
\A1;1.6099
 73
     1
 44
1.0
  0
POINT
  5
2C2
330
2BA
100
AcDbEntity
  8
Defpoints
 62
     0
100
AcDbPoint
 10
5.414213562373097
 20
2.82842712474619
 30
0.0
  0
POINT
  5
2C3
330
2BA
100
AcDbEntity
  8
Defpoints
 62
     0
100
AcDbPoint
 10
5.229192673724297
 20
1.229192673724296
 30
0.0
  0
POINT
  5
2C4
330
2BA
100
AcDbEntity
  8
Defpoints
 62
     0
100
AcDbPoint
 10
3.169957562035922
 20
1.467432607874
 30
0.0
  0
ENDBLK
  5
2C6
330
2BA
100
AcDbEntity
  8
0
100
AcDbBlockEnd
  0
BLOCK
  5
2D5
330
2CA
100
AcDbEntity
  8
0
100
AcDbBlockBegin
  2
*D11
 70
     1
 10
0.0
 20
0.0
 30
0.0
  3
*D11
  1

  0
LINE
  5
2CB
330
2CA
100
AcDbEntity
  8
0
 62
     0
370
    -2
100
AcDbLine
 10
5.414213562373096
 20
2.89092712474619
 30
0.0
 11
5.414213562373096
 21
3.696001148066014
 31
0.0
  0
LINE
  5
2CC
330
2CA
100
AcDbEntity
  8
0
 62
     0
370
    -2
100
AcDbLine
 10
5.229192673724296
 20
1.291692673724296
 30
0.0
 11
5.229192673724296
 21
3.696001148066014
 31
0.0
  0
LINE
  5
2CD
330
2CA
100
AcDbEntity
  8
0
 62
     0
370
    -2
100
AcDbLine
 10
5.049192673724296
 20
3.516001148066014
 30
0.0
 11
4.869192673724297
 21
3.516001148066014
 31
0.0
  0
LINE
  5
2CE
330
2CA
100
AcDbEntity
  8
0
 62
     0
370
    -2
100
AcDbLine
 10
5.414213562373096
 20
3.516001148066014
 30
0.0
 11
5.774213562373096
 21
3.516001148066014
 31
0.0
  0
SOLID
  5
2CF
330
2CA
100
AcDbEntity
  8
0
 62
     0
100
AcDbTrace
 10
5.594213562373096
 20
3.546001148066014
 30
0.0
 11
5.594213562373096
 21
3.486001148066014
 31
0.0
 12
5.414213562373096
 22
3.516001148066014
 32
0.0
 13
5.414213562373096
 23
3.516001148066014
 33
0.0
  0
SOLID
  5
2D0
330
2CA
100
AcDbEntity
  8
0
 62
     0
100
AcDbTrace
 10
5.049192673724296
 20
3.486001148066014
 30
0.0
 11
5.049192673724296
 21
3.546001148066014
 31
0.0
 12
5.229192673724296
 22
3.516001148066014
 32
0.0
 13
5.229192673724296
 23
3.516001148066014
 33
0.0
  0
MTEXT
  5
2D1
330
2CA
100
AcDbEntity
  8
0
 62
     0
100
AcDbMText
 10
4.389192673724297
 20
3.516001148066014
 30
0.0
 40
0.18
 41
0.0
 71
     5
 72
     1
  1
\A1;0.1850
 73
     1
 44
1.0
  0
POINT
  5
2D2
330
2CA
100
AcDbEntity
  8
Defpoints
 62
     0
100
AcDbPoint
 10
5.414213562373096
 20
2.82842712474619
 30
0.0
  0
POINT
  5
2D3
330
2CA
100
AcDbEntity
  8
Defpoints
 62
     0
100
AcDbPoint
 10
5.229192673724296
 20
1.229192673724296
 30
0.0
  0
POINT
  5
2D4
330
2CA
100
AcDbEntity
  8
Defpoints
 62
     0
100
AcDbPoint
 10
5.229192673724296
 20
3.516001148066014
 30
0.0
  0
ENDBLK
  5
2D6
330
2CA
100
AcDbEntity
  8
0
100
AcDbBlockEnd
  0
BLOCK
  5
31F
330
312
100
AcDbEntity
  8
0
100
AcDbBlockBegin
  2
*D12
 70
     1
 10
0.0
 20
0.0
 30
0.0
  3
*D12
  1

  0
LINE
  5
313
330
312
100
AcDbEntity
  8
0
 62
     0
370
    -2
100
AcDbLine
 10
2.544531611860345
 20
5.0438541394297
 30
0.0
 11
4.729096880872343
 21
7.195184978317326
 31
0.0
  0
LINE
  5
314
330
312
100
AcDbEntity
  8
0
 62
     0
370
    -2
100
AcDbLine
 10
-0.0445316118603444
 20
5.0438541394297
 30
0.0
 11
-2.229096880872343
 21
7.195184978317327
 31
0.0
  0
ARC
  5
315
330
312
100
AcDbEntity
  8
0
 62
     0
370
    -2
100
AcDbCircle
 10
1.25
 20
3.76901661545423
 30
0.0
 40
4.702903312290718
100
AcDbArc
 50
46.75392495408555
 51
86.70876257891496
  0
ARC
  5
316
330
312
100
AcDbEntity
  8
0
 62
     0
370
    -2
100
AcDbCircle
 10
1.25
 20
3.76901661545423
 30
0.0
 40
4.702903312290718
100
AcDbArc
 50
93.29123742108504
 51
133.2460750459144
  0
SOLID
  5
317
330
312
100
AcDbEntity
  8
0
 62
     0
100
AcDbTrace
 10
4.451146268515838
 20
7.173240404884936
 30
0.0
 11
4.493083114945547
 21
7.216150787212889
 31
0.0
 12
4.600845838714551
 22
7.068885056759789
 32
0.0
 13
4.600845838714551
 23
7.068885056759789
 33
0.0
  0
SOLID
  5
318
330
312
100
AcDbEntity
  8
0
 62
     0
100
AcDbTrace
 10
-1.993083114945546
 20
7.21615078721289
 30
0.0
 11
-1.951146268515838
 21
7.173240404884937
 31
0.0
 12
-2.100845838714551
 22
7.06888505675979
 32
0.0
 13
-2.100845838714551
 23
7.06888505675979
 33
0.0
  0
MTEXT
  5
319
330
312
100
AcDbEntity
  8
0
 62
     0
100
AcDbMText
 10
1.25
 20
8.471919927744947
 30
0.0
 40
0.18
 41
0.0
 71
     5
 72
     1
  1
\A1;91%%d
 73
     1
 44
1.0
  0
POINT
  5
31A
330
312
100
AcDbEntity
  8
Defpoints
 62
     0
100
AcDbPoint
 10
2.478803142741227
 20
8.308547692685035
 30
0.0
  0
POINT
  5
31B
330
312
100
AcDbEntity
  8
Defpoints
 62
     0
100
AcDbPoint
 10
2.5
 20
5.0
 30
0.0
  0
POINT
  5
31C
330
312
100
AcDbEntity
  8
Defpoints
 62
     0
100
AcDbPoint
 10
1.25
 20
3.76901661545423
 30
0.0
  0
POINT
  5
31D
330
312
100
AcDbEntity
  8
Defpoints
 62
     0
100
AcDbPoint
 10
0.0000000000000002
 20
5.0
 30
0.0
  0
POINT
  5
31E
330
312
100
AcDbEntity
  8
Defpoints
 62
     0
100
AcDbPoint
 10
1.25
 20
3.76901661545423
 30
0.0
  0
ENDBLK
  5
320
330
312
100
AcDbEntity
  8
0
100
AcDbBlockEnd
  0
ENDSEC
  0
SECTION
  2
ENTITIES
  0
LWPOLYLINE
  5
351
330
1F
100
AcDbEntity
  8
0
100
AcDbPolyline
 90
        4
 70
     1
 43
0.0
 10
5.303300858899107
 20
1.767766952966368
 10
1.767766952966368
 20
-1.767766952966369
 10
0.0
 20
0.0
 10
3.535533905932739
 20
3.535533905932737
 42
-0.4806248474865696
  0
ENDSEC
  0
SECTION
  2
OBJECTS
  0
DICTIONARY
  5
C
330
0
100
AcDbDictionary
281
     1
  3
ACAD_GROUP
350
D
  3
ACAD_IMAGE_VARS
350
DC
  3
ACAD_LAYOUT
350
1A
  3
ACAD_MLINESTYLE
350
17
  3
ACAD_PLOTSETTINGS
350
19
  3
ACAD_PLOTSTYLENAME
350
E
  3
ACAD_SCALELIST
350
B6
  3
AcDbVariableDictionary
350
66
  3
APPDATA
350
E1
  3
DWGPROPS
350
364
  0
DICTIONARY
  5
E9
330
2
100
AcDbDictionary
280
     1
281
     1
  3
ACAD_LAYERSTATES
360
EA
  3
ACLYDICTIONARY
360
F0
  0
DICTIONARY
  5
D
102
{ACAD_REACTORS
330
C
102
}
330
C
100
AcDbDictionary
281
     1
  0
RASTERVARIABLES
  5
DC
102
{ACAD_REACTORS
330
C
102
}
330
C
100
AcDbRasterVariables
 90
        0
 70
     1
 71
     1
 72
     5
  0
DICTIONARY
  5
1A
102
{ACAD_REACTORS
330
C
102
}
330
C
100
AcDbDictionary
281
     1
  3
Model
350
22
  3
Sheet1
350
59
  3
Sheet2
350
5E
  0
DICTIONARY
  5
17
102
{ACAD_REACTORS
330
C
102
}
330
C
100
AcDbDictionary
281
     1
  3
Standard
350
18
  0
DICTIONARY
  5
19
102
{ACAD_REACTORS
330
C
102
}
330
C
100
AcDbDictionary
281
     1
  0
ACDBDICTIONARYWDFLT
  5
E
102
{ACAD_REACTORS
330
C
102
}
330
C
100
AcDbDictionary
281
     1
  3
Normal
350
F
100
AcDbDictionaryWithDefault
340
F
  0
DICTIONARY
  5
B6
102
{ACAD_REACTORS
330
C
102
}
330
C
100
AcDbDictionary
281
     1
  3
A0
350
B7
  3
A1
350
B8
  3
A2
350
B9
  3
A3
350
BA
  3
A4
350
BB
  3
A5
350
BC
  3
A6
350
BD
  3
A7
350
BE
  3
A8
350
BF
  3
A9
350
C0
  3
B0
350
C1
  3
B1
350
C2
  3
B2
350
C3
  3
B3
350
C4
  3
B4
350
C5
  3
B5
350
C6
  3
B6
350
C7
  3
B7
350
C8
  3
B8
350
C9
  3
B9
350
CA
  3
C0
350
CB
  3
C1
350
CC
  3
C2
350
CD
  3
C3
350
CE
  3
C4
350
CF
  3
C5
350
D0
  3
C6
350
D1
  3
C7
350
D2
  3
C8
350
D3
  3
C9
350
D4
  3
D0
350
D5
  3
D1
350
D6
  3
D2
350
D7
  0
DICTIONARY
  5
66
102
{ACAD_REACTORS
330
C
102
}
330
C
100
AcDbDictionary
281
     1
  3
CANNOSCALE
350
365
  3
DIMASSOC
350
67
  3
HIDETEXT
350
6B
  0
DICTIONARY
  5
E1
102
{ACAD_REACTORS
330
C
102
}
330
C
100
AcDbDictionary
281
     1
  0
XRECORD
  5
364
102
{ACAD_REACTORS
330
C
102
}
330
C
100
AcDbXrecord
280
     1
  1
DWGPROPS COOKIE
  2

  3

  4

  6

  7

  8

  9

300
=
301
=
302
=
303
=
304
=
305
=
306
=
307
=
308
=
309
=
 40
0.0
 41
2452643.063384271
 42
2456335.9209375
  1

 90
        0
  0
DICTIONARY
  5
EA
102
{ACAD_REACTORS
330
E9
102
}
330
E9
100
AcDbDictionary
281
     1
  3
ARGON_LAYERP_1
350
EB
  0
DICTIONARY
  5
F0
102
{ACAD_REACTORS
330
E9
102
}
330
E9
100
AcDbDictionary
281
     1
1001
ACAD
1000
<All
  0
LAYOUT
  5
22
102
{ACAD_REACTORS
330
1A
102
}
330
1A
100
AcDbPlotSettings
  1

  2
none_device
  4
ANSI_A_(8.50_x_11.00_Inches)
  6

 40
6.35
 41
19.05
 42
6.35
 43
19.05
 44
215.9
 45
279.4
 46
11.11250000000003
 47
0.0000000000000142
 48
0.0
 49
0.0
140
0.0
141
0.0
142
1.0
143
1.263157894736842
 70
 11444
 72
     0
 73
     1
 74
     1
  7
monochrome.ctb
 75
     0
147
0.7916666666666665
148
-702.8076765758875
149
-496.2830551296954
100
AcDbLayout
  1
Model
 70
     1
 71
     0
 10
0.0
 20
0.0
 11
12.0
 21
9.0
 12
0.0
 22
0.0
 32
0.0
 14
-2.229096880872343
 24
-1.767766952966369
 34
0.0
 15
5.313091660587587
 25
8.561919927744947
 35
0.0
146
0.0
 13
0.0
 23
0.0
 33
0.0
 16
1.0
 26
0.0
 36
0.0
 17
0.0
 27
1.0
 37
0.0
 76
     0
330
1F
331
94
  0
LAYOUT
  5
59
102
{ACAD_REACTORS
330
1A
102
}
330
1A
100
AcDbPlotSettings
  1

  2
None
  4

  6

 40
0.0
 41
0.0
 42
0.0
 43
0.0
 44
0.0
 45
0.0
 46
0.0
 47
0.0
 48
0.0
 49
0.0
140
0.0
141
0.0
142
1.0
143
1.0
 70
   688
 72
     0
 73
     0
 74
     5
  7

 75
    16
147
1.0
148
0.0
149
0.0
100
AcDbLayout
  1
Sheet1
 70
     1
 71
     1
 10
0.0
 20
0.0
 11
12.0
 21
9.0
 12
0.0
 22
0.0
 32
0.0
 14
0.0
 24
0.0
 34
0.0
 15
0.0
 25
0.0
 35
0.0
146
0.0
 13
0.0
 23
0.0
 33
0.0
 16
1.0
 26
0.0
 36
0.0
 17
0.0
 27
1.0
 37
0.0
 76
     0
330
58
  0
LAYOUT
  5
5E
102
{ACAD_REACTORS
330
1A
102
}
330
1A
100
AcDbPlotSettings
  1

  2
None
  4

  6

 40
0.0
 41
0.0
 42
0.0
 43
0.0
 44
0.0
 45
0.0
 46
0.0
 47
0.0
 48
0.0
 49
0.0
140
0.0
141
0.0
142
1.0
143
1.0
 70
   688
 72
     0
 73
     0
 74
     5
  7

 75
    16
147
1.0
148
0.0
149
0.0
100
AcDbLayout
  1
Sheet2
 70
     1
 71
     2
 10
0.0
 20
0.0
 11
12.0
 21
9.0
 12
0.0
 22
0.0
 32
0.0
 14
0.0
 24
0.0
 34
0.0
 15
0.0
 25
0.0
 35
0.0
146
0.0
 13
0.0
 23
0.0
 33
0.0
 16
1.0
 26
0.0
 36
0.0
 17
0.0
 27
1.0
 37
0.0
 76
     0
330
5D
  0
MLINESTYLE
  5
18
102
{ACAD_REACTORS
330
17
102
}
330
17
100
AcDbMlineStyle
  2
STANDARD
 70
     0
  3

 62
   256
 51
90.0
 52
90.0
 71
     2
 49
0.5
 62
   256
  6
BYLAYER
 49
-0.5
 62
   256
  6
BYLAYER
  0
ACDBPLACEHOLDER
  5
F
102
{ACAD_REACTORS
330
E
102
}
330
E
  0
SCALE
  5
B7
102
{ACAD_REACTORS
330
B6
102
}
330
B6
100
AcDbScale
 70
     0
300
1:1
140
1.0
141
1.0
290
     1
  0
SCALE
  5
B8
102
{ACAD_REACTORS
330
B6
102
}
330
B6
100
AcDbScale
 70
     0
300
1:2
140
1.0
141
2.0
290
     0
  0
SCALE
  5
B9
102
{ACAD_REACTORS
330
B6
102
}
330
B6
100
AcDbScale
 70
     0
300
1:4
140
1.0
141
4.0
290
     0
  0
SCALE
  5
BA
102
{ACAD_REACTORS
330
B6
102
}
330
B6
100
AcDbScale
 70
     0
300
1:5
140
1.0
141
5.0
290
     0
  0
SCALE
  5
BB
102
{ACAD_REACTORS
330
B6
102
}
330
B6
100
AcDbScale
 70
     0
300
1:8
140
1.0
141
8.0
290
     0
  0
SCALE
  5
BC
102
{ACAD_REACTORS
330
B6
102
}
330
B6
100
AcDbScale
 70
     0
300
1:10
140
1.0
141
10.0
290
     0
  0
SCALE
  5
BD
102
{ACAD_REACTORS
330
B6
102
}
330
B6
100
AcDbScale
 70
     0
300
1:16
140
1.0
141
16.0
290
     0
  0
SCALE
  5
BE
102
{ACAD_REACTORS
330
B6
102
}
330
B6
100
AcDbScale
 70
     0
300
1:20
140
1.0
141
20.0
290
     0
  0
SCALE
  5
BF
102
{ACAD_REACTORS
330
B6
102
}
330
B6
100
AcDbScale
 70
     0
300
1:30
140
1.0
141
30.0
290
     0
  0
SCALE
  5
C0
102
{ACAD_REACTORS
330
B6
102
}
330
B6
100
AcDbScale
 70
     0
300
1:40
140
1.0
141
40.0
290
     0
  0
SCALE
  5
C1
102
{ACAD_REACTORS
330
B6
102
}
330
B6
100
AcDbScale
 70
     0
300
1:50
140
1.0
141
50.0
290
     0
  0
SCALE
  5
C2
102
{ACAD_REACTORS
330
B6
102
}
330
B6
100
AcDbScale
 70
     0
300
1:100
140
1.0
141
100.0
290
     0
  0
SCALE
  5
C3
102
{ACAD_REACTORS
330
B6
102
}
330
B6
100
AcDbScale
 70
     0
300
2:1
140
2.0
141
1.0
290
     0
  0
SCALE
  5
C4
102
{ACAD_REACTORS
330
B6
102
}
330
B6
100
AcDbScale
 70
     0
300
4:1
140
4.0
141
1.0
290
     0
  0
SCALE
  5
C5
102
{ACAD_REACTORS
330
B6
102
}
330
B6
100
AcDbScale
 70
     0
300
8:1
140
8.0
141
1.0
290
     0
  0
SCALE
  5
C6
102
{ACAD_REACTORS
330
B6
102
}
330
B6
100
AcDbScale
 70
     0
300
10:1
140
10.0
141
1.0
290
     0
  0
SCALE
  5
C7
102
{ACAD_REACTORS
330
B6
102
}
330
B6
100
AcDbScale
 70
     0
300
100:1
140
100.0
141
1.0
290
     0
  0
SCALE
  5
C8
102
{ACAD_REACTORS
330
B6
102
}
330
B6
100
AcDbScale
 70
     0
300
1/128" = 1'-0"
140
0.0078125
141
12.0
290
     0
  0
SCALE
  5
C9
102
{ACAD_REACTORS
330
B6
102
}
330
B6
100
AcDbScale
 70
     0
300
1/64" = 1'-0"
140
0.015625
141
12.0
290
     0
  0
SCALE
  5
CA
102
{ACAD_REACTORS
330
B6
102
}
330
B6
100
AcDbScale
 70
     0
300
1/32" = 1'-0"
140
0.03125
141
12.0
290
     0
  0
SCALE
  5
CB
102
{ACAD_REACTORS
330
B6
102
}
330
B6
100
AcDbScale
 70
     0
300
1/16" = 1'-0"
140
0.0625
141
12.0
290
     0
  0
SCALE
  5
CC
102
{ACAD_REACTORS
330
B6
102
}
330
B6
100
AcDbScale
 70
     0
300
3/32" = 1'-0"
140
0.09375
141
12.0
290
     0
  0
SCALE
  5
CD
102
{ACAD_REACTORS
330
B6
102
}
330
B6
100
AcDbScale
 70
     0
300
1/8" = 1'-0"
140
0.125
141
12.0
290
     0
  0
SCALE
  5
CE
102
{ACAD_REACTORS
330
B6
102
}
330
B6
100
AcDbScale
 70
     0
300
3/16" = 1'-0"
140
0.1875
141
12.0
290
     0
  0
SCALE
  5
CF
102
{ACAD_REACTORS
330
B6
102
}
330
B6
100
AcDbScale
 70
     0
300
1/4" = 1'-0"
140
0.25
141
12.0
290
     0
  0
SCALE
  5
D0
102
{ACAD_REACTORS
330
B6
102
}
330
B6
100
AcDbScale
 70
     0
300
3/8" = 1'-0"
140
0.375
141
12.0
290
     0
  0
SCALE
  5
D1
102
{ACAD_REACTORS
330
B6
102
}
330
B6
100
AcDbScale
 70
     0
300
1/2" = 1'-0"
140
0.5
141
12.0
290
     0
  0
SCALE
  5
D2
102
{ACAD_REACTORS
330
B6
102
}
330
B6
100
AcDbScale
 70
     0
300
3/4" = 1'-0"
140
0.75
141
12.0
290
     0
  0
SCALE
  5
D3
102
{ACAD_REACTORS
330
B6
102
}
330
B6
100
AcDbScale
 70
     0
300
1" = 1'-0"
140
1.0
141
12.0
290
     0
  0
SCALE
  5
D4
102
{ACAD_REACTORS
330
B6
102
}
330
B6
100
AcDbScale
 70
     0
300
1-1/2" = 1'-0"
140
1.5
141
12.0
290
     0
  0
SCALE
  5
D5
102
{ACAD_REACTORS
330
B6
102
}
330
B6
100
AcDbScale
 70
     0
300
3" = 1'-0"
140
3.0
141
12.0
290
     0
  0
SCALE
  5
D6
102
{ACAD_REACTORS
330
B6
102
}
330
B6
100
AcDbScale
 70
     0
300
6" = 1'-0"
140
6.0
141
12.0
290
     0
  0
SCALE
  5
D7
102
{ACAD_REACTORS
330
B6
102
}
330
B6
100
AcDbScale
 70
     0
300
1'-0" = 1'-0"
140
12.0
141
12.0
290
     0
  0
DICTIONARYVAR
  5
365
102
{ACAD_REACTORS
330
66
102
}
330
66
100
DictionaryVariables
280
     0
  1
1:1
  0
DICTIONARYVAR
  5
67
102
{ACAD_REACTORS
330
66
102
}
330
66
100
DictionaryVariables
280
     0
  1
2
  0
DICTIONARYVAR
  5
6B
102
{ACAD_REACTORS
330
66
102
}
330
66
100
DictionaryVariables
280
     0
  1
1
  0
XRECORD
  5
EB
102
{ACAD_REACTORS
330
EA
102
}
330
EA
100
AcDbXrecord
280
     1
 91
     1023
301

290
     0
302
0
330
10
 90
        8
 62
     7
370
    -3
331
16
  1
Color_7
  0
ENDSEC
  0
EOF
